<svg width="640" height="640" version="1.1" viewBox="0 0 169.33 169.33" xmlns="http://www.w3.org/2000/svg" xmlns:xlink="http://www.w3.org/1999/xlink">
 <g display="none" fill="#fff" stroke="#000">
  <path d="m43.978 88.569v72.629l40.687-24.858 40.689 24.859v-72.63l-40.688 24.859z" display="inline" stroke-width="3.2615"/>
  <path d="m43.978 77.921v72.629l40.687-24.858 40.689 24.859v-72.63l-40.688 24.859z" display="inline" stroke-width="3.2615"/>
  <path transform="matrix(.85647 .27651 .27651 -.85647 119.16 196.45)" d="m-8.8064 78.637-39.308 54.103-63.602-20.666v-66.875l63.602-20.665z" display="inline" stroke-width="3.4396"/>
  <path transform="matrix(.85647 .27651 .27651 -.85647 119.16 182.65)" d="m-8.8064 78.637-39.308 54.103-63.602-20.666v-66.875l63.602-20.665z" display="inline" stroke-width="3.4396"/>
 </g>
 <rect x="112.74" y="107.46" width=".46261" height="44.389" display="none" stroke="#000" stroke-width="3.2615"/>
 <rect x="27.976" y="93.593" width="113.38" height="63.639" rx="0" ry="0" display="none" fill="#fff" stroke="#000" stroke-width="2.8854"/>
 <g fill="#fff">
  <path d="m63.171 80.843-48.504 48.504 25.669-1.5582-1.558 25.669 48.504-48.504-25.669 1.558z" stroke="#000" stroke-width="3.175"/>
  <rect x="53.797" y="100.13" width="17.095" height="13.432"/>
  <path d="m106.16 80.843 48.504 48.504-25.669-1.5582 1.558 25.669-48.504-48.504 25.669 1.558z" stroke="#000" stroke-width="3.175"/>
  <rect x="103.46" y="100.54" width="17.095" height="13.432"/>
 </g>
 <g>
  <circle cx="84.039" cy="66.248" r="46.811" display="none" stroke="#000" stroke-width="3.7751"/>
  <path transform="matrix(1.2093 .32402 -.32402 1.2093 6.2338 -25.146)" d="m79.349 105.21-10.192-13.104-15.378 6.2525-2.2743-16.444-16.444-2.2743 6.2525-15.378-13.104-10.192 13.104-10.192-6.2525-15.378 16.444-2.2743 2.2743-16.444 15.378 6.2525 10.192-13.104 10.192 13.104 15.378-6.2525 2.2743 16.444 16.444 2.2743-6.2525 15.378 13.104 10.192-13.104 10.192 6.2525 15.378-16.444 2.2743-2.2743 16.444-15.378-6.2525z" display="none" stroke-width=".26458"/>
  <path transform="matrix(1.2093 .32402 -.32402 1.2093 6.2338 -25.146)" d="m79.349 75.554-13.236 27.918 2.4966-30.796-25.422 17.56 17.56-25.422-30.796 2.4966 27.918-13.236-27.918-13.236 30.796 2.4966-17.56-25.422 25.422 17.56-2.4966-30.796 13.236 27.918 13.236-27.918-2.4966 30.796 25.422-17.56-17.56 25.422 30.796-2.4966-27.918 13.236 27.918 13.236-30.796-2.4966 17.56 25.422-25.422-17.56 2.4966 30.796z" display="none" stroke-width=".26458"/>
 </g>
 <rect x="57.861" y="112.24" width="52.311" height="10.583" ry="3.0033" display="none" fill="#fff"/>
 <g stroke-width=".26458">
  <path transform="matrix(1.2093 .32402 -.32402 1.2093 6.2338 -25.146)" d="m79.349 54.587c9.1163-1e-6 -22.042 46.526-13.236 48.886 8.8056 2.3595 5.0853-53.512 12.98-48.954 7.8949 4.5581-42.352 29.272-35.906 35.718 6.4462 6.4462 31.16-43.8 35.718-35.906s-51.314 4.1746-48.954 12.98c2.3595 8.8056 48.886-22.352 48.886-13.236 0 9.1163-46.526-22.042-48.886-13.236-2.3595 8.8056 53.512 5.0853 48.954 12.98-4.5581 7.8949-29.272-42.352-35.718-35.906-6.4462 6.4462 43.8 31.16 35.906 35.718-7.8949 4.5581-4.1746-51.314-12.98-48.954-8.8056 2.3595 22.352 48.886 13.236 48.886s22.042-46.526 13.236-48.886c-8.8056-2.3595-5.0853 53.512-12.98 48.954-7.8949-4.5581 42.352-29.272 35.906-35.718s-31.16 43.8-35.718 35.906c-4.5581-7.8949 51.314-4.1746 48.954-12.98s-48.886 22.352-48.886 13.236c0-9.1163 46.526 22.042 48.886 13.236s-53.512-5.0853-48.954-12.98c4.5581-7.8949 29.272 42.352 35.718 35.906 6.4462-6.4462-43.8-31.16-35.906-35.718 7.8949-4.5581 4.1746 51.314 12.98 48.954 8.8056-2.3595-22.352-48.886-13.236-48.886z" display="none"/>
  <path transform="matrix(.67822 0 0 1 65.81 13.536)" d="m-8.8772 146.98-2e-7 -84.708 73.36 42.354z" display="none"/>
  <path transform="matrix(-.68223 0 0 1 103.63 13.536)" d="m-8.8772 146.98-2e-7 -84.708 73.36 42.354z" display="none"/>
 </g>
 <g display="none" stroke="#000">
  <g fill="#fff" stroke-width="3.4396">
   <rect transform="rotate(75)" x="110.26" y="-95.435" width="55.785" height="55.785" display="inline"/>
   <rect transform="rotate(15)" x="68.128" y="66.431" width="55.785" height="55.785"/>
   <rect transform="rotate(45)" x="118.36" y="-1.3777" width="55.785" height="55.785"/>
  </g>
  <circle cx="84.667" cy="121.79" r="15.39" display="inline" stroke-width="1.1367"/>
 </g>
 <g>
  <path transform="matrix(1.408 0 0 1.408 -34.544 -26.941)" d="m84.666 30.141a35.891 35.891 0 0 0-35.891 35.891 35.891 35.891 0 0 0 35.891 35.893 35.891 35.891 0 0 0 35.893-35.893 35.891 35.891 0 0 0-35.893-35.891z" stroke-width=".32788" xlink:href="#path5"/>
  <circle id="path5" cx="84.667" cy="66.032" r="35.891" fill="#fff" stroke-width=".32788"/>
  <path transform="matrix(.90762 0 0 -.90762 122.81 96.631)" d="m-42.026 73.766-11.194-24.268-26.539-3.1466 19.621-18.145-5.2084-26.213 23.32 13.054 23.32-13.054-5.2084 26.213 19.621 18.145-26.539 3.1466z" display="none" stroke-width=".26458"/>
  <path transform="matrix(.90762 0 0 .90762 122.81 34.748)" d="m-42.026 73.766-11.194-24.268-26.539-3.1466 19.621-18.145-5.2084-26.213 23.32 13.054 23.32-13.054-5.2084 26.213 19.621 18.145-26.539 3.1466z" display="none" fill="#fff" stroke-width=".26458"/>
  <circle cx="84.667" cy="65.956" r="21.307" stroke-width=".22567"/>
  <path d="m17.162 113.37c-0.90733 0-1.7085 0.40664-2.2583 1.0387l-6.7515 4.8013c-1.116 0.79365-1.116 2.0713 0 2.8649l6.0064 4.2716v32.016c0 1.6638 1.3396 3.0034 3.0034 3.0034s3.0034-1.3396 3.0034-3.0034v-30.565h16.495v30.565c0 1.6638 1.3396 3.0034 3.0034 3.0034s3.0034-1.3396 3.0034-3.0034v-30.565h16.495v30.565c0 1.6638 1.3396 3.0034 3.0034 3.0034 1.6638 0 3.0034-1.3396 3.0034-3.0034v-30.565h16.495v30.565c0 1.6638 1.3396 3.0034 3.0034 3.0034s3.0034-1.3396 3.0034-3.0034v-30.565h16.495v30.565c0 1.6638 1.3396 3.0034 3.0034 3.0034 1.6638 0 3.0034-1.3396 3.0034-3.0034v-30.565h16.495v30.565c0 1.6638 1.3396 3.0034 3.0034 3.0034 1.6638 0 3.0034-1.3396 3.0034-3.0034v-30.565h16.495v30.565c0 1.6638 1.3396 3.0034 3.0034 3.0034s3.0034-1.3396 3.0034-3.0034v-41.989c0-1.6638-1.3396-3.0034-3.0034-3.0034h-134.63z" display="none" stroke-width=".26458"/>
  <path transform="matrix(.58484 0 0 .58484 122.57 55.118)" d="m-32.869 51.133h-63.866v-63.866h63.866z" display="none" fill="#fff"/>
 </g>
</svg>
