<?xml version="1.0" encoding="UTF-8" standalone="no"?>
<!-- Created with Inkscape (http://www.inkscape.org/) -->

<svg
   width="640"
   height="640"
   viewBox="0 0 169.33333 169.33333"
   version="1.1"
   id="svg1"
   inkscape:export-filename="jra_g1_icon.svg"
   inkscape:export-xdpi="96"
   inkscape:export-ydpi="96"
   inkscape:version="1.3.2 (091e20e, 2023-11-25, custom)"
   sodipodi:docname="race_icon_base.svg"
   xmlns:inkscape="http://www.inkscape.org/namespaces/inkscape"
   xmlns:sodipodi="http://sodipodi.sourceforge.net/DTD/sodipodi-0.dtd"
   xmlns:xlink="http://www.w3.org/1999/xlink"
   xmlns="http://www.w3.org/2000/svg"
   xmlns:svg="http://www.w3.org/2000/svg">
  <sodipodi:namedview
     id="namedview1"
     pagecolor="#ffffff"
     bordercolor="#000000"
     borderopacity="0.25"
     inkscape:showpageshadow="2"
     inkscape:pageopacity="0.0"
     inkscape:pagecheckerboard="true"
     inkscape:deskcolor="#d1d1d1"
     inkscape:document-units="px"
     showgrid="true"
     inkscape:zoom="0.33234019"
     inkscape:cx="416.74166"
     inkscape:cy="-287.35616"
     inkscape:window-width="1920"
     inkscape:window-height="1017"
     inkscape:window-x="1358"
     inkscape:window-y="-8"
     inkscape:window-maximized="1"
     inkscape:current-layer="g3">
    <inkscape:grid
       id="grid2"
       units="px"
       originx="0"
       originy="0"
       spacingx="1.0583333"
       spacingy="1.0583333"
       empcolor="#0099e5"
       empopacity="0.30196078"
       color="#0099e5"
       opacity="0.14901961"
       empspacing="5"
       dotted="false"
       gridanglex="30"
       gridanglez="30"
       visible="true" />
  </sodipodi:namedview>
  <defs
     id="defs1" />
  <g
     inkscape:label="Layer 1"
     inkscape:groupmode="layer"
     id="layer1">
    <g
       id="g2"
       style="display:none"
       inkscape:label="jra_footer">
      <path
         id="path8"
         style="display:inline;fill:#ffffff;stroke:#000000;stroke-width:3.2615;stroke-linecap:butt;stroke-opacity:1"
         d="m 43.978464,88.568981 v 72.628539 l 40.687169,-24.85808 40.689237,24.85918 V 88.568981 L 84.666665,113.4276 Z" />
      <path
         id="path8-8"
         style="display:inline;fill:#ffffff;stroke:#000000;stroke-width:3.2615;stroke-linecap:butt;stroke-opacity:1"
         d="M 43.978467,77.921357 V 150.5499 L 84.665636,125.69182 125.35487,150.551 V 77.921357 L 84.666668,102.77998 Z" />
    </g>
    <g
       id="g14"
       inkscape:label="jrs_footer"
       style="display:none">
      <path
         sodipodi:type="star"
         style="display:inline;fill:#ffffff;stroke:#000000;stroke-width:3.43958;stroke-opacity:1"
         id="path11-0"
         inkscape:flatsided="true"
         sodipodi:sides="5"
         sodipodi:cx="-65.693604"
         sodipodi:cy="78.636955"
         sodipodi:r1="56.887218"
         sodipodi:r2="46.022724"
         sodipodi:arg1="0"
         sodipodi:arg2="0.62831853"
         inkscape:rounded="0"
         inkscape:randomized="0"
         d="m -8.806385,78.636955 -39.308101,54.102965 -63.601844,-20.6655 0,-66.874933 63.601844,-20.665492 z"
         inkscape:transform-center-x="0.15581109"
         transform="matrix(0.85647055,0.27651077,0.27651077,-0.85647055,119.15658,196.44528)"
         inkscape:transform-center-y="4.800941" />
      <path
         sodipodi:type="star"
         style="display:inline;fill:#ffffff;stroke:#000000;stroke-width:3.43958;stroke-opacity:1"
         id="path11"
         inkscape:flatsided="true"
         sodipodi:sides="5"
         sodipodi:cx="-65.693604"
         sodipodi:cy="78.636955"
         sodipodi:r1="56.887218"
         sodipodi:r2="46.022724"
         sodipodi:arg1="0"
         sodipodi:arg2="0.62831853"
         inkscape:rounded="0"
         inkscape:randomized="0"
         d="m -8.806385,78.636955 -39.308101,54.102965 -63.601844,-20.6655 0,-66.874933 63.601844,-20.665492 z"
         inkscape:transform-center-x="0.15581109"
         transform="matrix(0.85647055,0.27651077,0.27651077,-0.85647055,119.15658,182.6467)"
         inkscape:transform-center-y="4.800941" />
    </g>
    <g
       id="g4"
       style="display:none"
       inkscape:label="local_footer">
      <path
         id="path10"
         style="display:inline;fill:#ffffff;fill-opacity:1;fill-rule:nonzero;stroke:#000000;stroke-width:3.175;stroke-dasharray:none;stroke-opacity:1"
         inkscape:transform-center-x="-3.5794191"
         d="m 63.171085,80.843287 -48.504396,48.504403 25.668596,-1.55815 -1.557958,25.66879 48.50439,-48.5044 -25.668793,1.55797 z"
         inkscape:transform-center-y="3.5794163" />
      <rect
         style="fill:#ffffff;fill-opacity:1;stroke:none;stroke-width:3.43958"
         id="rect4"
         width="17.09499"
         height="13.431777"
         x="53.79652"
         y="100.12779" />
      <path
         id="path10-3"
         style="display:inline;fill:#ffffff;fill-opacity:1;fill-rule:nonzero;stroke:#000000;stroke-width:3.175;stroke-dasharray:none;stroke-opacity:1"
         inkscape:transform-center-x="3.5794199"
         d="m 106.16224,80.843285 48.5044,48.504405 -25.6686,-1.55815 1.55796,25.66879 -48.504395,-48.5044 25.668795,1.55797 z"
         inkscape:transform-center-y="3.5794163" />
      <rect
         style="display:inline;fill:#ffffff;fill-opacity:1;stroke:none;stroke-width:3.43958"
         id="rect4-0"
         width="17.09499"
         height="13.431777"
         x="103.46306"
         y="100.54166" />
    </g>
    <g
       id="g3"
       inkscape:label="abroad_footer">
      <rect
         style="display:inline;fill:#ffffff;stroke:#000000;stroke-width:2.93815;stroke-linecap:butt;stroke-opacity:1"
         id="rect2"
         width="102.89518"
         height="72.712326"
         x="33.219074"
         y="89.056328"
         ry="0"
         rx="0" />
      <rect
         style="fill:#000000;fill-opacity:1;stroke-width:6.50094"
         id="rect3-2"
         width="15.874997"
         height="75.650482"
         x="137.58333"
         y="87.58725" />
      <rect
         style="fill:#000000;fill-opacity:1;stroke-width:6.50094"
         id="rect3-2-5"
         width="15.874997"
         height="75.650482"
         x="15.875003"
         y="87.58725" />
      <rect
         style="fill:#000000;fill-opacity:1;stroke-width:2.64216"
         id="rect3-2-6"
         width="2.6222825"
         height="75.650482"
         x="105.83333"
         y="87.58725" />
      <rect
         style="fill:#000000;fill-opacity:1;stroke-width:2.64216"
         id="rect3-2-6-1"
         width="2.6222825"
         height="75.650482"
         x="60.877712"
         y="87.58725" />
    </g>
    <circle
       style="display:none;fill:#000000;fill-opacity:1;stroke:#000000;stroke-width:3.77512"
       id="path1"
       cx="84.03904"
       cy="66.247635"
       r="46.811413" />
    <path
       sodipodi:type="star"
       style="display:inline;opacity:1;fill:#000000;stroke-width:0.264583"
       id="path3"
       inkscape:flatsided="false"
       sodipodi:sides="12"
       sodipodi:cx="79.349457"
       sodipodi:cy="54.075188"
       sodipodi:r1="51.139694"
       sodipodi:r2="39.37756"
       sodipodi:arg1="1.5707963"
       sodipodi:arg2="1.8325957"
       inkscape:rounded="0"
       inkscape:randomized="0"
       d="M 79.349458,105.21488 69.157795,92.11099 53.779611,98.363463 51.505318,81.919328 35.061183,79.645036 41.313655,64.266851 28.209763,54.075189 41.313655,43.883526 35.061182,28.505342 51.505317,26.231049 53.779608,9.786914 69.157794,16.039386 79.349455,2.9354935 89.541119,16.039386 104.9193,9.7869127 l 2.2743,16.4441353 16.44413,2.274291 -6.25247,15.378186 13.10389,10.191661 -13.10389,10.191664 6.25247,15.378184 -16.44413,2.274293 -2.27429,16.444134 -15.37819,-6.252472 z"
       inkscape:transform-center-y="0.89849525"
       transform="matrix(1.2092631,0.32402106,-0.32402106,1.2092631,6.2337962,-25.146262)"
       inkscape:transform-center-x="0.2407532"
       inkscape:label="graded_frame" />
    <path
       sodipodi:type="star"
       style="display:none;fill:#000000;stroke-width:0.264583"
       id="path3-6"
       inkscape:flatsided="false"
       sodipodi:sides="12"
       sodipodi:cx="79.349457"
       sodipodi:cy="54.075188"
       sodipodi:r1="21.47867"
       sodipodi:r2="51.139694"
       sodipodi:arg1="1.5707963"
       sodipodi:arg2="1.8325957"
       inkscape:rounded="0"
       inkscape:randomized="0"
       d="M 79.349457,75.553858 66.113531,103.47234 68.610122,72.676262 43.188233,90.236413 60.748383,64.814523 29.952306,67.311115 57.870787,54.075188 29.952305,40.839262 60.748383,43.335853 43.188232,17.913964 68.610121,35.474114 66.113529,4.6780365 79.349456,32.596518 92.585383,4.6780361 90.088791,35.474113 115.51068,17.913963 97.95053,43.335852 128.74661,40.83926 100.82813,54.075187 128.74661,67.311114 97.950531,64.814522 115.51068,90.236412 90.088792,72.676261 92.585384,103.47234 Z"
       inkscape:transform-center-y="0.89849525"
       transform="matrix(1.2092631,0.32402106,-0.32402106,1.2092631,6.2337945,-25.146262)"
       inkscape:transform-center-x="0.2407532" />
    <rect
       style="display:none;fill:#ffffff;fill-opacity:1;stroke:none;stroke-width:3.77306"
       id="rect1"
       width="52.310722"
       height="10.583333"
       x="57.860672"
       y="112.23518"
       ry="3.0032773" />
    <path
       sodipodi:type="star"
       style="display:none;fill:#000000;stroke-width:0.264583"
       id="path3-8"
       inkscape:flatsided="false"
       sodipodi:sides="12"
       sodipodi:cx="79.349457"
       sodipodi:cy="54.075188"
       sodipodi:r1="0.51139694"
       sodipodi:r2="51.139694"
       sodipodi:arg1="1.5707963"
       sodipodi:arg2="1.8325957"
       inkscape:rounded="-0.18"
       inkscape:randomized="0"
       d="m 79.349457,54.586585 c 9.116261,-10e-7 -22.041559,46.526295 -13.235926,48.885755 8.805632,2.35946 5.085313,-53.5124 12.980227,-48.95427 7.894914,4.558131 -42.351696,29.272173 -35.905525,35.718343 6.44617,6.44617 31.16021,-43.800441 35.718341,-35.905527 4.558131,7.894914 -51.313731,4.174597 -48.954268,12.980229 2.359462,8.805632 48.885754,-22.352189 48.885754,-13.235927 0,9.116261 -46.526293,-22.041559 -48.885755,-13.235926 -2.359462,8.805632 53.5124,5.085313 48.954269,12.980227 -4.55813,7.894914 -29.272172,-42.351696 -35.718342,-35.905525 -6.44617,6.44617 43.80044,31.16021 35.905526,35.718341 C 71.198845,58.190436 74.919161,2.3185742 66.113529,4.6780365 57.307897,7.0374987 88.465718,53.563791 79.349457,53.563791 70.233196,53.563791 101.39102,7.0374979 92.585383,4.6780361 83.779751,2.3185743 87.500069,58.190435 79.605155,53.632305 71.710241,49.074174 121.95685,24.360133 115.51068,17.913963 c -6.44617,-6.44617 -31.16021,43.80044 -35.71834,35.905526 -4.558131,-7.894914 51.31373,-4.174597 48.95427,-12.980229 -2.35946,-8.805632 -48.885756,22.352189 -48.885756,13.235928 0,-9.116262 46.526296,22.041558 48.885756,13.235926 2.35946,-8.805632 -53.512401,-5.085314 -48.95427,-12.980228 4.55813,-7.894914 29.27217,42.351696 35.71834,35.905526 6.44617,-6.446171 -43.800438,-31.160211 -35.905525,-35.718342 7.894914,-4.55813 4.174597,51.31373 12.980229,48.95427 8.805636,-2.35946 -22.352188,-48.885755 -13.235927,-48.885755 z"
       inkscape:transform-center-y="0.89849525"
       transform="matrix(1.2092631,0.32402107,-0.32402107,1.2092631,6.2337962,-25.146262)"
       inkscape:transform-center-x="0.2407532"
       inkscape:label="gradeless_central_frame" />
    <path
       id="path4"
       style="display:none;fill:#000000;stroke-width:0.264583"
       inkscape:transform-center-x="-8.2923186"
       inkscape:transform-center-y="-1.3180942e-06"
       d="m -8.8772854,62.269738 v 42.229982 l -0.2163915,0.12402 0.2163915,0.12402 v 42.22998 l 36.6798734,-21.177 36.896265,21.177 V 62.269738 L 27.802588,83.44674 Z"
       transform="matrix(0.67822028,0,0,1,65.810386,13.535969)"
       inkscape:label="nar_wg1_footer" />
    <g
       id="g1"
       style="display:none"
       inkscape:label="empire_footer">
      <rect
         style="display:inline;fill:#ffffff;fill-opacity:1;stroke:#000000;stroke-width:3.43958;stroke-dasharray:none"
         id="rect9-5"
         width="55.784531"
         height="55.784531"
         x="110.25756"
         y="-95.435143"
         transform="rotate(75)" />
      <rect
         style="fill:#ffffff;fill-opacity:1;stroke:#000000;stroke-width:3.43958;stroke-dasharray:none"
         id="rect9-5-2"
         width="55.784531"
         height="55.784531"
         x="68.128281"
         y="66.430878"
         transform="rotate(15)" />
      <rect
         style="opacity:1;fill:#ffffff;fill-opacity:1;stroke:#000000;stroke-width:3.43958;stroke-dasharray:none"
         id="rect9"
         width="55.784531"
         height="55.784531"
         x="118.35902"
         y="-1.3777184"
         transform="rotate(45)" />
      <circle
         style="display:inline;opacity:1;fill:#000000;stroke:#000000;stroke-width:1.13673"
         id="path9"
         cx="84.666664"
         cy="121.79176"
         r="15.390074" />
    </g>
    <path
       style="display:none;fill:#000000;fill-opacity:1;stroke-width:0.327882"
       sodipodi:type="inkscape:offset"
       inkscape:radius="0"
       inkscape:original="M 84.666016 30.140625 A 35.891388 35.891388 0 0 0 48.775391 66.03125 A 35.891388 35.891388 0 0 0 84.666016 101.92383 A 35.891388 35.891388 0 0 0 120.55859 66.03125 A 35.891388 35.891388 0 0 0 84.666016 30.140625 z "
       xlink:href="#path5"
       id="path2"
       inkscape:href="#path5"
       d="M 84.666016,30.140625 A 35.891388,35.891388 0 0 0 48.775391,66.03125 35.891388,35.891388 0 0 0 84.666016,101.92383 35.891388,35.891388 0 0 0 120.55859,66.03125 35.891388,35.891388 0 0 0 84.666016,30.140625 Z"
       transform="matrix(1.408,0,0,1.408,-34.544134,-26.941149)"
       inkscape:label="gradeless_frame" />
    <circle
       style="display:inline;fill:#ffffff;fill-opacity:1;stroke-width:0.327882"
       id="path5"
       cx="84.666664"
       cy="66.032028"
       r="35.891388"
       sodipodi:insensitive="true" />
    <path
       sodipodi:type="star"
       style="display:inline;fill:#000000;fill-opacity:1;stroke-width:0.264583"
       id="path6"
       inkscape:flatsided="false"
       sodipodi:sides="5"
       sodipodi:cx="-42.025822"
       sodipodi:cy="34.090878"
       sodipodi:r1="39.674728"
       sodipodi:r2="19.043869"
       sodipodi:arg1="1.5707963"
       sodipodi:arg2="2.1991149"
       inkscape:rounded="0"
       inkscape:randomized="0"
       d="M -42.025821,73.765606 -53.219528,49.497691 -79.75873,46.351044 -60.137617,28.205998 -65.346043,1.9933486 -42.025821,15.047009 -18.705602,1.9933474 -23.914026,28.205999 -4.2929124,46.351042 -30.832117,49.497692 Z"
       inkscape:transform-center-y="-3.4386105"
       transform="matrix(0.90762054,0,0,-0.90762054,122.81016,96.630894)"
       inkscape:transform-center-x="1.8660698e-06"
       inkscape:label="g1_emblem" />
    <path
       sodipodi:type="star"
       style="display:none;fill:#ffffff;fill-opacity:1;stroke-width:0.264583"
       id="path6-4"
       inkscape:flatsided="false"
       sodipodi:sides="5"
       sodipodi:cx="-42.025822"
       sodipodi:cy="34.090878"
       sodipodi:r1="39.674728"
       sodipodi:r2="19.043869"
       sodipodi:arg1="1.5707963"
       sodipodi:arg2="2.1991149"
       inkscape:rounded="0"
       inkscape:randomized="0"
       d="M -42.025821,73.765606 -53.219528,49.497691 -79.75873,46.351044 -60.137617,28.205998 -65.346043,1.9933486 -42.025821,15.047009 -18.705602,1.9933474 -23.914026,28.205999 -4.2929124,46.351042 -30.832117,49.497692 Z"
       inkscape:transform-center-y="3.4386106"
       transform="matrix(0.90762054,0,0,0.90762054,122.81016,34.747733)"
       inkscape:transform-center-x="5.5403089e-06"
       inkscape:label="jg1_emblem" />
    <circle
       style="display:none;fill:#000000;fill-opacity:1;stroke-width:0.225674"
       id="path7"
       cx="84.666664"
       cy="65.955765"
       r="21.306799"
       inkscape:label="grade_emblem" />
    <path
       id="rect7"
       style="display:none;fill:#000000;fill-opacity:1;stroke-width:0.264583"
       d="m 17.16226,113.36879 c -0.907333,0 -1.708471,0.40664 -2.25826,1.03869 l -6.7515262,4.80126 c -1.1160276,0.79365 -1.1160276,2.0713 0,2.86494 l 6.0063512,4.27158 v 32.01613 c 0,1.66381 1.339621,3.00343 3.003435,3.00343 1.663814,0 3.003434,-1.33962 3.003434,-3.00343 v -30.56454 h 16.4946 v 30.56454 c 0,1.66381 1.33962,3.00343 3.003434,3.00343 1.663814,0 3.003434,-1.33962 3.003434,-3.00343 v -30.56454 h 16.4946 v 30.56454 c 0,1.66381 1.339621,3.00343 3.003435,3.00343 1.663813,0 3.003434,-1.33962 3.003434,-3.00343 v -30.56454 h 16.4946 v 30.56454 c 0,1.66381 1.33962,3.00343 3.003434,3.00343 1.663814,0 3.003434,-1.33962 3.003434,-3.00343 V 127.79685 H 104.1647 v 30.56454 c 0,1.66381 1.33962,3.00343 3.00343,3.00343 1.66382,0 3.00344,-1.33962 3.00344,-3.00343 v -30.56454 h 16.4946 v 30.56454 c 0,1.66381 1.33962,3.00343 3.00343,3.00343 1.66382,0 3.00344,-1.33962 3.00344,-3.00343 v -30.56454 h 16.4946 v 30.56454 c 0,1.66381 1.33962,3.00343 3.00343,3.00343 1.66381,0 3.00343,-1.33962 3.00343,-3.00343 v -33.56746 -8.42171 c 0,-1.66381 -1.33962,-3.00343 -3.00343,-3.00343 H 17.542081 Z"
       inkscape:label="staplechase_footer" />
    <path
       sodipodi:type="star"
       style="display:none;fill:#ffffff;fill-opacity:1;stroke:none;stroke-width:3.43958;stroke-opacity:1"
       id="path14"
       inkscape:flatsided="true"
       sodipodi:sides="4"
       sodipodi:cx="-64.802055"
       sodipodi:cy="19.200609"
       sodipodi:r1="45.159767"
       sodipodi:r2="31.932777"
       sodipodi:arg1="0.78539816"
       sodipodi:arg2="1.5707963"
       inkscape:rounded="0"
       inkscape:randomized="0"
       d="m -32.869278,51.133387 -63.865555,0 0,-63.865555 63.865555,0 z"
       transform="matrix(0.58484363,0,0,0.58484363,122.56574,55.118136)"
       inkscape:label="jgrade_emblem" />
  </g>
</svg>
