<?xml version="1.0" standalone="no"?>
<!DOCTYPE svg PUBLIC "-//W3C//DTD SVG 20010904//EN"
 "http://www.w3.org/TR/2001/REC-SVG-20010904/DTD/svg10.dtd">
<svg version="1.0" xmlns="http://www.w3.org/2000/svg"
 width="55pt" height="55pt" viewBox="0 0 1024.000000 1024.000000"
 preserveAspectRatio="xMidYMid meet">

<g transform="translate(0.000000,1024.000000) scale(0.100000,-0.100000)"
fill="#800020" stroke="none">
<path d="M843 9426 c-59 -19 -99 -51 -130 -104 l-28 -47 -3 -4134 c-1 -2924 1
-4145 9 -4173 15 -57 89 -133 148 -153 42 -14 474 -15 4296 -13 l4250 3 41 22
c54 29 110 93 123 140 15 51 15 8252 1 8304 -13 47 -72 114 -124 142 l-41 22
-4250 2 c-3469 1 -4258 -1 -4292 -11z m8378 -334 l29 -32 0 -3939 0 -3938 -20
-26 c-12 -15 -38 -31 -58 -37 -25 -6 -677 -10 -1972 -10 l-1935 0 77 43 c152
87 329 221 455 345 189 185 297 356 481 767 138 306 205 445 268 552 173 295
421 565 724 790 l95 71 100 4 c309 15 548 242 572 545 l6 71 -34 18 c-53 27
-223 26 -314 -3 -198 -63 -352 -217 -399 -399 -9 -34 -16 -77 -17 -95 0 -32
-7 -38 -143 -127 -210 -137 -408 -314 -548 -490 -16 -19 -28 -30 -28 -25 0 5
27 90 59 189 171 522 356 862 645 1186 159 179 312 292 580 429 l165 84 28
-27 c83 -79 252 -111 364 -69 108 41 184 134 209 255 22 106 -13 220 -90 294
-166 162 -439 115 -548 -93 -21 -40 -27 -66 -29 -129 l-2 -79 -108 -56 c-128
-67 -211 -119 -274 -171 l-45 -38 32 81 c55 137 101 305 130 472 26 149 28
179 28 425 0 146 -4 303 -8 350 l-7 85 20 -42 c83 -177 259 -324 427 -355 97
-18 96 -19 92 132 -2 72 -1 129 2 127 22 -13 200 -96 216 -101 28 -8 40 23 55
143 26 195 -44 381 -203 547 l-49 51 103 16 c223 37 413 178 517 384 l21 42
-63 30 c-35 17 -92 37 -126 45 -35 8 -65 17 -67 19 -2 2 5 16 16 30 35 44 110
170 110 185 0 18 -114 68 -197 88 -78 18 -206 19 -283 3 -71 -15 -169 -59
-230 -104 -26 -19 -50 -35 -53 -35 -3 0 6 33 21 73 21 61 25 91 26 192 1 141
-21 227 -86 327 -44 67 -145 178 -162 178 -23 0 -166 -196 -166 -227 0 -28
-17 -8 -49 57 -18 38 -54 92 -80 121 -55 62 -61 60 -138 -25 -64 -72 -109
-148 -140 -238 -22 -61 -27 -91 -27 -183 -1 -104 12 -169 50 -269 3 -8 -30 8
-73 37 -117 79 -198 102 -353 102 -96 0 -138 -5 -180 -19 -47 -16 -147 -61
-159 -72 -6 -5 59 -112 101 -165 22 -28 38 -52 36 -53 -1 -2 -30 -8 -63 -15
-33 -6 -93 -27 -133 -46 l-73 -34 22 -43 c40 -79 96 -153 162 -214 110 -103
216 -152 380 -175 l87 -12 -53 -56 c-136 -143 -197 -285 -197 -456 0 -77 19
-200 35 -225 6 -10 87 20 179 66 52 26 67 31 62 18 -8 -22 -9 -231 -1 -244 9
-14 49 -12 124 6 163 41 301 152 391 315 l30 54 -5 -105 c-26 -545 -36 -641
-85 -835 -73 -290 -224 -590 -438 -868 -43 -55 -87 -113 -99 -130 -29 -40 -29
-32 -1 130 19 112 22 163 22 408 0 305 -9 373 -70 553 -97 286 -239 457 -634
766 -272 212 -408 359 -502 541 -84 165 -148 420 -148 595 l0 77 46 13 c104
29 214 130 263 241 43 97 46 240 6 334 -98 237 -366 342 -590 231 -322 -159
-318 -625 7 -781 40 -19 80 -35 89 -35 14 0 17 -19 22 -137 18 -428 179 -776
486 -1051 47 -43 165 -140 261 -217 198 -157 306 -261 369 -354 60 -87 124
-228 155 -336 24 -83 68 -316 61 -323 -1 -2 -19 25 -38 60 -213 381 -560 579
-1057 605 l-126 6 -33 91 c-167 456 -563 931 -968 1160 -236 133 -463 195
-734 198 l-112 2 -46 65 c-84 119 -187 235 -347 391 -165 161 -294 265 -399
321 -74 39 -99 35 -91 -13 3 -18 13 -78 22 -133 34 -206 140 -536 215 -671 16
-28 29 -53 29 -56 0 -4 -32 -18 -70 -33 -39 -15 -97 -47 -129 -71 -91 -68
-229 -219 -353 -386 -421 -565 -410 -546 -432 -713 -23 -164 -1 -115 -338
-762 -377 -724 -415 -819 -405 -1018 8 -179 64 -294 216 -445 130 -129 255
-180 441 -180 260 0 451 117 569 348 82 160 178 253 449 430 126 83 172 101
447 182 173 51 281 102 378 179 152 121 280 318 322 496 l12 50 7 -65 c12
-109 -19 -271 -71 -375 -41 -80 -81 -134 -168 -225 -48 -50 -87 -100 -93 -120
-6 -19 -18 -84 -27 -145 -63 -435 -321 -1447 -465 -1822 -16 -40 -25 -73 -21
-73 4 0 32 18 62 41 112 84 479 295 1024 589 478 258 591 326 737 447 141 117
270 274 366 443 l31 55 -54 28 c-159 84 -245 230 -245 417 0 247 156 444 383
483 63 10 66 12 62 36 -3 14 -9 67 -15 116 -21 168 -74 465 -96 538 -5 15 2
17 62 17 100 0 265 -27 360 -60 149 -51 272 -131 396 -257 95 -97 159 -193
199 -297 45 -116 59 -193 66 -347 11 -253 -38 -506 -150 -771 l-41 -98 -23 81
c-28 96 -59 160 -126 257 -47 68 -198 222 -217 222 -5 0 -9 42 -9 93 0 130
-24 192 -105 273 -45 44 -77 67 -121 84 -125 47 -268 34 -372 -35 -60 -40 -92
-79 -130 -160 -25 -54 -28 -71 -28 -170 0 -98 3 -116 27 -167 79 -169 267
-262 433 -213 80 23 121 45 179 96 l49 43 87 -90 c100 -105 172 -230 195 -342
41 -192 0 -451 -121 -762 l-45 -115 -132 -1 c-156 -1 -246 -22 -368 -85 -199
-104 -285 -240 -402 -634 -119 -400 -191 -555 -322 -694 -159 -169 -362 -258
-642 -281 -79 -6 -708 -10 -1680 -10 -1675 0 -1599 -2 -1637 51 -15 22 -16
337 -16 3957 0 2760 3 3939 11 3953 5 11 25 29 42 40 32 19 86 19 4090 16
l4059 -2 29 -33z m-1547 -1572 c34 -12 59 -63 51 -101 -4 -16 -20 -40 -37 -52
l-30 -22 4 -102 c2 -56 6 -104 9 -107 3 -3 46 7 97 22 79 24 96 33 112 59 53
88 170 62 170 -37 0 -75 -78 -117 -139 -74 -20 14 -29 15 -65 4 -65 -19 -136
-52 -136 -62 0 -11 23 -45 79 -120 25 -34 42 -48 59 -48 14 0 38 -14 58 -34
44 -44 45 -83 5 -128 -24 -27 -36 -33 -71 -33 -35 0 -47 6 -72 34 -27 30 -30
39 -25 76 6 39 3 46 -36 92 -23 27 -49 60 -58 73 l-16 24 -59 -51 c-80 -69
-98 -90 -85 -98 6 -3 11 -26 11 -50 0 -36 -5 -48 -31 -69 -43 -36 -91 -35
-130 3 -58 59 -27 151 56 167 30 5 48 20 94 76 31 38 56 74 56 81 0 6 -40 28
-90 48 -89 37 -89 37 -113 18 -14 -10 -36 -19 -49 -19 -32 0 -80 26 -93 49
-32 62 15 141 85 141 27 0 44 -8 66 -29 16 -16 29 -36 29 -44 0 -23 180 -81
197 -65 7 8 15 54 19 108 l7 96 -33 32 c-28 29 -32 38 -27 70 11 65 67 97 131
72z m-2746 -1518 c83 -27 147 -74 192 -143 120 -186 53 -428 -146 -525 -51
-25 -71 -29 -144 -29 -71 0 -94 4 -142 27 -76 35 -138 95 -174 165 -26 53 -29
67 -29 158 0 87 3 107 26 156 36 76 89 133 155 165 98 48 168 55 262 26z
m1177 -3399 c-4 -10 -37 -106 -74 -213 -128 -368 -217 -530 -368 -671 -79 -74
-255 -189 -289 -189 -3 0 3 15 14 33 32 55 79 187 122 343 166 600 246 711
519 713 75 1 82 -1 76 -16z"/>
</g>
</svg>
